Coordinates
version=1
nRows=13
nColumns=36
inDegrees=yes

Units are S.I. units (second, meters, Newtons, ...)
If the header above contains a line with 'inDegrees', this indicates whether rotational values are in degrees (yes) or radians (no).

endheader
time	pelvis_tilt	pelvis_list	pelvis_rotation	pelvis_tx	pelvis_ty	pelvis_tz	hip_flexion_r	hip_adduction_r	hip_rotation_r	knee_angle_r	knee_angle_r_beta	ankle_angle_r	subtalar_angle_r	mtp_angle_r	hip_flexion_l	hip_adduction_l	hip_rotation_l	knee_angle_l	knee_angle_l_beta	ankle_angle_l	subtalar_angle_l	mtp_angle_l	lumbar_extension	lumbar_bending	lumbar_rotation	arm_flex_r	arm_add_r	arm_rot_r	elbow_flex_r	pro_sup_r	arm_flex_l	arm_add_l	arm_rot_l	elbow_flex_l	pro_sup_l
      3.88333330	     19.66391540	     -2.39020928	      0.41197653	      0.34652861	      0.93771921	      0.13012627	     -5.61873138	      3.95012587	     -1.66631592	      1.08204035	      0.01888517	     -8.66553598	    -19.57149018	     -7.49999987	    -19.49318830	      2.07124668	     -2.97097918	      0.36321150	      0.00633924	      0.96141006	     -3.56991619	     -7.49999987	    -38.68079733	     -0.00275308	      2.22036020	     65.19242843	      1.92748880	     68.28144200	    117.86239455	    101.99747729	     79.72746521	      9.52624647	     80.85184042	    113.32211279	     98.56898564
      3.90000000	     19.55475240	     -2.45527722	      0.59102247	      0.34762153	      0.94255208	      0.12792945	     -5.02714403	      4.11323456	     -1.04373896	      1.16500935	      0.02033325	    -10.21234816	    -21.10842043	     -7.49999987	    -19.25354148	      1.96178769	     -2.31029540	      0.34786810	      0.00607144	     -0.52660451	     -4.53392907	     -7.49999987	    -38.52115967	      0.23238283	      2.05824985	     64.74275175	      1.51428124	     69.53428387	    117.78140087	    102.65892633	     79.06395330	      9.45797470	     81.63314888	    114.00642643	     98.31152105
      3.91666670	     19.45039271	     -2.55784815	      0.71637969	      0.34694386	      0.94041974	      0.12783160	     -4.37322393	      4.29083056	     -1.04795988	      1.29167792	      0.02254403	     -9.91884440	    -20.49726150	     -7.49999987	    -19.01575125	      1.79594612	     -2.35259590	      0.34869603	      0.00608589	     -0.68035805	     -4.18038475	     -7.49999987	    -38.42731700	      0.43228188	      1.60409699	     64.53101710	      1.45488917	     70.88698462	    118.27156647	    102.57133270	     79.17231077	      9.20331584	     81.85858361	    114.42707010	     97.89194219
      3.93333330	     19.89754069	     -2.70671397	      0.73337765	      0.34704451	      0.93835542	      0.12560481	     -4.42892623	      4.44656970	     -0.20831863	      1.26040938	      0.02199829	    -10.49592320	    -21.35697292	     -7.49999987	    -19.40459211	      1.65249800	     -1.98584174	      0.33968677	      0.00592865	     -1.04780984	     -4.56994743	     -7.49999987	    -38.41439496	      0.58816842	      1.20775616	     64.46378000	      1.79277213	     70.27050529	    117.10475418	    102.02847513	     79.11600519	      8.70159900	     82.38494272	    116.05473292	     97.75259766
      3.95000000	     20.44679005	     -2.85919591	      0.82857758	      0.34681092	      0.94055496	      0.12407039	     -4.64183861	      4.59158447	      0.19152545	      1.26797384	      0.02213032	    -10.69360417	    -21.43856295	     -7.49999987	    -19.93904310	      1.52524483	     -2.01255754	      0.33329285	      0.00581706	     -1.13908939	     -4.34008368	     -7.49999987	    -38.68309772	      0.82842687	      1.31091987	     64.73326551	      2.25385804	     70.10405908	    117.02729752	    101.85358748	     79.65722413	      8.68152974	     82.81025134	    116.64394639	     98.00246084
      3.96666670	     21.05929012	     -2.97117954	      0.96081028	      0.34935531	      0.94653209	      0.12168734	     -5.16918605	      4.66040747	      0.53669928	      1.25745074	      0.02194666	    -10.90337915	    -21.47798156	     -7.49999987	    -20.66419107	      1.43955466	     -1.81890282	      0.30995747	      0.00540978	     -1.33472607	     -4.41324448	     -7.49999987	    -39.24310498	      1.15165431	      1.20288943	     64.09679751	      1.40131912	     70.64243566	    118.47800075	    102.53551096	     79.30940636	      8.49848826	     82.88013423	    116.03336404	     97.51771746
      3.98333330	     21.33733193	     -3.06226943	      0.98137135	      0.34681859	      0.94736293	      0.12158096	     -5.31126772	      4.69175412	      0.85646879	      1.14716258	      0.02002176	    -10.90656158	    -21.18610406	     -7.49999987	    -20.98130107	      1.37670063	     -1.73310917	      0.29991488	      0.00523450	     -1.28873397	     -4.43384332	     -7.49999987	    -39.46537009	      1.37073164	      1.06209757	     63.81666277	      1.13245477	     71.35865118	    119.46644952	    102.59274615	     79.19455022	      8.38803820	     82.75122226	    115.53655742	     97.47603413
      4.00000000	     21.66177419	     -3.14786002	      1.14974117	      0.34517631	      0.94783080	      0.12015129	     -5.50820258	      4.70819228	      0.90360666	      1.08109448	      0.01886866	    -10.86747404	    -20.79833862	     -7.49999987	    -21.28088284	      1.28112951	     -1.32772725	      0.29220906	      0.00510001	     -1.50718456	     -4.69904457	     -7.49999987	    -39.80999558	      1.67520736	      1.22252321	     64.25985031	      1.05913034	     71.44967085	    118.85792133	    101.90025277	     79.66391872	      8.29861887	     82.46336295	    115.13213720	     96.56631437
      4.01666670	     21.94440048	     -3.22545422	      1.14638803	      0.34588184	      0.94061317	      0.11899419	     -5.56530628	      4.69881376	      1.28951668	      1.07130223	      0.01869775	    -10.79474893	    -20.68849818	     -7.49999987	    -21.54159741	      1.24684070	     -1.29435898	      0.27665243	      0.00482850	     -1.23138924	     -4.78979993	     -7.49999987	    -39.65244642	      1.57899975	      1.13510497	     64.01725517	      0.93217608	     71.24695923	    118.68660286	    101.88528502	     79.51710699	      8.42284864	     82.73169263	    115.68801402	     96.59651632
      4.03333330	     22.51204611	     -3.47283294	      1.03100823	      0.34666770	      0.94197972	      0.11782708	     -6.01861060	      4.86496012	      1.63905042	      1.06433254	      0.01857611	    -10.71782778	    -20.56937118	     -7.49999987	    -22.21363551	      1.08471416	     -1.37562087	      0.26387931	      0.00460556	     -0.62316663	     -4.26987994	     -7.49999987	    -39.69465951	      1.75772434	      0.10018757	     62.33996007	      0.53800609	     65.97358403	    115.02764472	    101.24269106	     79.79521111	      7.46388245	     83.17978997	    117.07810164	     96.62967031
      4.05000000	     22.99683922	     -3.70604749	      0.96491553	      0.34561920	      0.94345331	      0.11696792	     -6.41946937	      5.02333422	      2.03127482	      1.02393094	      0.01787097	    -10.62774841	    -20.38115384	     -7.49999987	    -22.76806391	      0.92192702	     -1.76141450	      0.24943726	      0.00435350	      0.20491487	     -3.43774105	     -7.49999987	    -39.86086170	      1.91546293	     -0.91184346	     61.96583013	      1.00321754	     64.78436744	    114.35671391	     98.82516598	     80.32235197	      6.24548817	     83.37561181	    116.99016804	     96.66208234
      4.06666670	     23.12862341	     -3.74734545	      1.09589525	      0.34444748	      0.94548597	      0.11557145	     -6.35622888	      4.97467105	      1.72737443	      1.00255252	      0.01749784	     -9.58723732	    -18.87065725	     -7.49999987	    -22.91334057	      0.93999073	     -1.68633152	      0.24248368	      0.00423214	      0.23920716	     -3.90610999	     -7.49999987	    -40.21457274	      2.13181720	     -0.85981445	     62.88961681	      1.19207584	     65.11689912	    114.36886800	     98.53240647	     81.38238934	      6.00207697	     82.66545538	    116.25280049	     96.62271814
      4.08333330	     23.02069508	     -3.77878594	      1.14001636	      0.34466359	      0.94738988	      0.11508644	     -6.09828779	      4.92696107	      2.00037289	      0.98870778	      0.01725621	     -9.33461615	    -18.52859665	     -7.49999987	    -22.89276825	      0.94077330	     -1.34842190	      0.23646886	      0.00412716	      0.19150588	     -4.46439000	     -7.49999987	    -40.15135924	      2.22763267	     -0.64430248	     63.22806662	      1.20818380	     65.69749274	    114.69576179	     99.57155278	     81.47813028	      5.67802603	     82.04017138	    115.39488532	     96.72240477
